<svg width="1069" height="622" viewBox="0 0 1069 622" fill="none" xmlns="http://www.w3.org/2000/svg">
<g clip-path="url(#clip0_1685_67)">
<path d="M540.768 104.412C505.035 65.8706 442.354 55.0093 391.781 78.5876C389.652 79.5643 387.797 80.9122 386.177 82.0842C385.454 82.6117 384.478 83.3149 383.716 83.7642C383.443 83.4712 383.091 83.0219 382.681 82.3968C366.084 57.8418 344.038 50.4969 320.626 61.6902C292.156 75.2862 288.973 103.67 289.032 123.849C289.286 183.195 289.266 243.557 289.227 301.926C289.227 338.358 289.188 374.81 289.227 411.261C289.247 432.437 295.222 449.549 306.489 460.781C315.119 469.377 326.445 473.928 339.254 473.928H339.45C369.559 473.811 389.164 449.1 389.398 410.949C389.535 389.89 389.516 381.256 389.477 368.5C389.477 364.417 389.457 359.905 389.438 354.435C393.499 356.252 397.248 357.854 401.153 359.358C467.27 384.577 554.534 346.367 580.7 280.731C601.964 227.363 577.146 143.618 540.768 104.393V104.412ZM487.676 197.885C487.715 210.915 482.872 222.889 474.066 231.621C465.845 239.767 454.91 244.143 443.331 243.987C419.547 243.635 400.021 223.182 399.806 198.373C399.689 186.203 404.707 174.131 413.592 165.282C422.203 156.706 433.372 152.155 444.639 152.233C468.735 152.584 487.617 172.627 487.656 197.885H487.676Z" fill="black"/>
<path d="M934.226 355.861C920.948 327.966 889.667 316.011 859.85 327.438C855.144 329.255 850.945 331.423 847.255 333.357C844.287 334.901 841.495 336.366 839.112 337.264C822.905 343.339 805.741 342.578 790.804 335.115C776.12 327.79 765.419 314.878 760.674 298.781C756.203 283.603 758.214 267.78 766.317 254.223C774.909 239.865 789.007 230.019 806.054 226.464C822.359 223.065 838.312 229.062 855.983 236.642C886.894 249.906 919.288 238.556 932.996 209.684C946.665 180.89 935.144 148.541 905.6 132.776C846.65 101.326 785.688 101.931 729.315 134.515C674.133 166.415 643.593 217.615 641.016 282.587L640.977 283.388V284.189C643.222 351.095 675.011 403.037 732.927 434.39C760.694 449.432 789.222 456.933 817.809 456.933C849.129 456.933 880.528 447.908 911.029 429.878C937.897 413.996 947.446 383.561 934.265 355.842L934.226 355.861Z" fill="black"/>
<path d="M312.033 236.485C296.822 156.902 228.87 98.8449 154.063 101.502C76.2111 104.295 13.5895 163.602 1.73691 245.764C-9.68612 325.016 35.9084 403.994 107.766 429.448C125.242 435.64 142.348 438.746 159.023 438.746C182.26 438.746 204.637 432.71 225.941 420.677C247.498 408.448 257.886 387.546 254.449 363.362C251.579 343.222 240.371 327.946 223.207 320.308C230.412 320.308 237.735 320.308 244.823 320.308H245.662C247.107 320.328 248.572 320.308 250.036 320.23C270.403 319.371 287.976 310.912 299.536 296.378C311.994 280.712 316.427 259.439 312.053 236.485H312.033ZM141.84 216.892C139.008 216.892 136.138 216.892 133.268 216.892C141.352 211.071 150.627 208.278 161.269 208.336C171.774 208.434 180.991 211.266 189.016 216.912H160.82C154.493 216.912 148.166 216.912 141.84 216.912V216.892ZM148.088 320.308C152.755 320.308 157.402 320.308 161.991 320.308H178.452C168.103 323.317 157.52 323.141 148.088 320.308Z" fill="black"/>
<path d="M294.519 222.128C281.066 157.585 221.354 110.351 155.94 112.46C87.792 114.707 32.1804 163.368 21.7142 229.902C11.7166 293.526 52.1365 359.026 115.344 379.557C149.906 390.789 184.585 389.89 217.507 372.837C230.16 366.254 237.795 355.314 235.432 340.077C233.284 326.266 224.79 317.359 211.297 313.999C202.94 311.928 194.876 314.467 186.577 316.694C154.006 325.387 120.245 314.116 103.823 289.971C101.5 286.592 97.6529 283.251 99.7227 278.817C102.007 274.011 107.143 276.238 111.029 276.199C134.87 275.984 158.751 276.121 182.632 276.121C204.404 276.082 226.177 276.082 247.949 276.082C249.335 276.082 250.741 276.121 252.127 276.043C283.272 274.949 300.827 252.523 294.5 222.128H294.519ZM218.815 220.623H162.11C143.872 220.662 125.693 220.506 107.475 220.701C94.4701 220.819 92.3612 214.294 98.7854 204.996C114.055 182.785 135.71 170.927 162.754 171.142C190.56 171.396 212.469 183.977 227.856 207.105C234.944 217.791 228.539 220.623 218.835 220.623H218.815Z" fill="white"/>
<path d="M442.001 258.599C475.788 258.599 503.178 231.198 503.178 197.397C503.178 163.596 475.788 136.195 442.001 136.195C408.214 136.195 380.824 163.596 380.824 197.397C380.824 231.198 408.214 258.599 442.001 258.599Z" fill="black"/>
<path d="M533.953 115.684C500.328 82.2014 445.771 73.5085 398.966 93.6487C393.01 96.1882 386.976 104.959 379.263 94.4496C366.395 76.888 349.349 68.5663 327.908 78.021C306.254 87.5539 301.079 106.17 301.157 128.264C301.587 216.658 301.235 305.052 301.372 393.485C301.411 424.31 317.735 443.552 343.061 443.474C368.426 443.396 384.321 424.271 384.535 393.153C384.75 363.187 384.574 333.26 384.574 301.711C393.732 305.384 400.684 308.47 407.831 310.99C469.144 332.556 534.128 306.224 558.38 250.081C578.219 204.156 568.378 149.908 533.953 115.664V115.684ZM446.864 246.975C418.414 246.604 395.216 224.315 394.963 197.123C394.67 169.677 419.488 146.255 448.426 146.626C477.033 146.998 499.781 169.091 499.82 196.557C499.898 225.019 476.408 247.347 446.864 246.956V246.975Z" fill="white"/>
<path d="M689.834 61.4362C690.83 45.7109 685.753 30.7279 675.521 19.3002C665.133 7.6771 650.488 0.839999 634.32 0.0781506C602.765 -1.40648 576.112 22.0936 573.495 53.6419C572.226 68.957 577.205 84.0572 587.535 96.1101C593.451 103.025 600.832 108.436 608.955 112.011C604.464 114.121 600.305 116.973 596.536 120.606C584.352 132.327 577.518 150.963 577.283 173.076C577.01 199.78 577.088 226.894 577.147 253.129C577.166 264.615 577.205 276.101 577.205 287.588C577.205 299.074 577.186 311.088 577.147 322.848C577.088 349.591 577.01 377.251 577.303 404.502C577.713 442.946 597.415 468.224 627.505 468.947C627.916 468.947 628.306 468.947 628.716 468.947C641.135 468.947 652.324 464.434 661.13 455.878C673.061 444.255 679.68 425.795 679.758 403.877C680.071 325.211 680.071 247.405 679.758 172.607C679.641 144.79 668.726 123.38 651.152 113.613C657.85 111.21 664.137 107.557 669.683 102.713C681.692 92.2227 688.858 77.5913 689.873 61.4948L689.834 61.4362Z" fill="black"/>
<path d="M629.323 122.501C604.72 121.915 587.4 140.805 587.048 169.736C586.638 203.413 586.95 237.091 586.95 270.769C586.95 305.149 586.619 339.53 587.048 373.911C587.4 402.08 603.45 419.934 627.722 420.423C652.735 420.911 669.841 402.51 669.977 373.423C670.29 305.364 670.309 237.306 669.977 169.247C669.841 141.274 653.399 123.087 629.304 122.521L629.323 122.501Z" fill="white"/>
<path d="M633.754 7.7357C608.604 6.62223 587.457 23.7345 585.348 46.8634C583.239 70.0119 603.254 91.285 628.716 92.965C654.218 94.645 676.303 76.4778 677.962 52.4308C679.622 28.4423 660.291 8.88824 633.754 7.7357Z" fill="white"/>
<path d="M666.93 272.839C669.214 215.349 695.009 171.474 744.216 143.032C794.907 113.73 847.355 114.062 899.042 141.645C918.705 152.135 925.344 171.748 916.889 189.563C908.512 207.203 888.771 214.372 868.561 205.699C848.234 196.987 827.926 189.524 805.431 194.213C758.47 203.999 730.215 249.808 743.376 294.425C756.888 340.273 805.471 364.32 850.753 347.364C857.938 344.668 864.48 340.233 871.646 337.479C890.665 330.193 909.957 337.557 918.158 354.748C926.105 371.45 921.029 389.949 903.63 400.224C852.471 430.464 799.613 432.651 747.301 404.307C695.595 376.294 668.902 331.736 666.949 272.82L666.93 272.839Z" fill="white"/>
<path d="M1016.92 381.1C1022.45 378.892 1027.53 375.611 1032 371.293C1043.24 360.452 1049.55 343.906 1049.77 324.684C1050.04 300.735 1049.98 276.414 1049.9 252.875C1049.88 242.522 1049.84 232.168 1049.84 221.795C1049.84 211.423 1049.86 200.737 1049.9 190.208C1049.96 166.161 1050.04 141.274 1049.75 116.778C1049.34 82.0842 1029.17 58.3497 999.525 57.7246C985.856 57.3925 973.769 62.0808 964.494 71.1253C953.501 81.8498 947.389 98.2784 947.291 117.364C946.979 188.196 946.979 258.091 947.291 325.075C947.408 350.938 958.636 370.786 976.679 379.537C971.114 381.764 965.822 385.007 961.018 389.187C946.959 401.416 938.27 420.423 937.177 441.344C935.185 479.788 959.515 511.415 992.573 513.349C993.569 513.407 994.565 513.427 995.561 513.427C1025.89 513.427 1051.07 486.274 1053.55 450.174C1055.6 420.052 1039.85 392.176 1016.9 381.061L1016.92 381.1Z" fill="black"/>
<path d="M997.728 363.577C1022.33 364.163 1039.65 345.273 1040 316.362C1040.41 282.685 1040.1 249.007 1040.1 215.329C1040.1 180.949 1040.43 146.568 1040 112.187C1039.65 84.0182 1023.6 66.1636 999.329 65.6752C974.316 65.1868 957.21 83.5884 957.074 112.675C956.761 180.734 956.742 248.792 957.074 316.851C957.21 344.824 973.652 363.011 997.747 363.577H997.728Z" fill="white"/>
<path d="M998.334 392.234C972.832 390.398 950.747 410.206 949.088 436.422C947.428 462.578 966.759 483.871 993.296 485.141C1018.45 486.352 1039.59 467.696 1041.7 442.477C1043.81 417.239 1023.8 394.051 998.334 392.234Z" fill="white"/>
<path d="M459.556 283.329C460.006 283.114 460.923 283.114 460.904 283.329C466.742 283.329 473.01 283.427 479.845 283.603C507.514 284.345 513.235 283.642 523.545 278.192C530.106 274.754 531.609 273.445 534.851 268.463C541.216 258.657 542.31 247.464 538.151 234.161C535.71 226.386 535.671 223.573 537.897 220.643C542.739 214.294 561.641 218.435 572.107 228.144C577.126 232.793 578.043 234.102 581.382 241.603C585.854 251.566 586.596 258.931 584.077 268.014C580.777 279.891 572.771 288.584 558.009 296.242C545.532 302.708 530.945 306.868 511.751 309.369C498.317 311.146 480.157 315.092 461.568 321.812C461.353 337.127 460.787 381.451 460.806 400.322C466.898 400.419 475.314 398.173 480.645 394.657C487.089 390.379 489.901 384.85 489.413 377.408C488.749 367.582 471.233 355.119 471.233 355.119C471.233 355.119 480.958 341.464 489.53 338.339C518.37 327.809 551.448 347.969 552.835 376.9C553.557 392.02 546.391 404.854 531.297 415.539C523.252 421.224 506.811 426.967 495.583 428.022C493.103 428.256 490.076 428.315 486.855 428.256C500.796 440.524 511.595 456.191 522.159 479.476C540.455 519.756 564.141 607.349 499.195 617.097C479.903 622.117 461.548 614.772 446.845 596.136C439.327 586.623 429.974 566.502 425.502 550.23C418.941 526.398 414.684 495.006 413.415 461.133C412.263 430.483 419.859 345.664 419.957 344.863C419.996 344.492 420.308 343.339 420.718 341.855C413.005 346.953 405.839 352.696 399.629 359.202C384.184 375.415 373.542 399.423 369.129 418.587C365.399 434.82 365.79 439.352 372.117 454.94C377.896 469.181 378.15 472.619 373.874 479.085C366.61 490.064 347.455 490.747 329.783 480.687C315.138 472.346 305.57 461.758 298.443 445.935C291.238 429.956 289.051 414.699 291.335 396.434C294.909 367.836 313.439 338.495 342.514 315.503C349.583 309.896 353.391 307.787 370.691 299.934C387.855 292.139 392.19 290.538 401.524 288.682C420.054 284.99 436.496 283.407 459.517 283.349M509.095 518.799C508.158 501.218 488.26 461.817 470.687 442.692L465.746 437.32L467.738 446.072C473.459 471.213 482.539 494.263 491.599 506.824C496.735 513.915 506.557 523.077 508.236 522.315C508.802 522.061 509.173 520.479 509.095 518.779V518.799Z" fill="#00D66B"/>
<path d="M487.636 622C471.644 622 456.569 613.835 444.248 598.226C436.516 588.42 426.87 567.733 422.3 551.109C415.72 527.16 411.385 495.24 410.096 461.231C409.1 434.8 414.646 367.66 416.247 349.18C410.955 353.126 406.23 357.268 402.188 361.526C386.293 378.209 376.452 402.334 372.527 419.329C368.954 434.859 369.286 438.707 375.358 453.632C381.275 468.224 382.056 472.951 376.803 480.921C368.485 493.502 347.592 494.654 328.182 483.598C312.932 474.924 302.837 463.711 295.436 447.283C287.958 430.698 285.693 414.855 288.055 395.966C291.726 366.566 310.843 336.248 340.484 312.787C347.807 306.986 351.868 304.739 369.364 296.789C386.86 288.838 391.292 287.217 400.938 285.302C419.781 281.552 436.672 279.989 459.108 279.911C459.85 279.735 460.787 279.657 461.685 279.911C467.231 279.911 473.226 280.008 479.982 280.184C507.163 280.907 512.279 280.301 522.003 275.164C528.31 271.843 529.228 270.925 532.039 266.569C537.819 257.661 538.776 247.386 534.949 235.138C532.469 227.187 531.903 222.909 535.242 218.533C537.116 216.091 540.28 214.607 544.4 214.255C553.714 213.474 566.621 218.338 574.451 225.605C579.86 230.605 580.973 232.246 584.527 240.177C589.35 250.921 590.15 258.97 587.397 268.893C583.824 281.747 575.271 291.104 559.611 299.23C546.821 305.872 531.766 310.15 512.24 312.729C497.477 314.682 480.372 318.824 464.966 324.215C464.79 336.874 464.282 376.372 464.243 396.727C469.34 396.161 475.12 394.247 478.81 391.785C484.239 388.191 486.484 383.815 486.054 377.603C485.664 371.645 475.569 362.327 469.281 357.854L466.508 355.881L468.481 353.107C469.535 351.622 479.083 338.495 488.378 335.096C503.648 329.529 521.085 331.736 535.027 340.995C547.836 349.512 555.569 362.522 556.233 376.685C557.014 392.938 549.281 406.924 533.27 418.255C524.795 424.252 507.67 430.249 495.915 431.343C495.681 431.362 495.447 431.382 495.212 431.401C506.674 443.102 516.145 457.832 525.283 478.011C541.295 513.251 554.124 565.194 537.605 595.628C530.145 609.361 517.453 617.683 499.918 620.379C495.779 621.433 491.659 621.961 487.617 621.961L487.636 622ZM426.401 334.041L423.96 343.066C423.667 344.121 423.452 344.941 423.374 345.312C423.316 345.977 415.72 430.229 416.872 460.977C418.141 494.459 422.378 525.831 428.842 549.292C433.216 565.174 442.315 584.806 449.579 593.987C463.501 611.608 480.392 618.445 498.415 613.756L498.766 613.678C514.192 611.354 525.264 604.204 531.668 592.386C548.071 562.185 531.493 508.055 519.132 480.824C508.822 458.105 498.2 442.653 484.668 430.737L477.717 424.603L486.992 424.779C490.331 424.838 493.143 424.779 495.33 424.564C505.932 423.568 521.847 418.04 529.403 412.707C543.599 402.666 550.16 390.984 549.496 377.017C548.93 365.023 542.291 353.966 531.317 346.66C519.171 338.593 504.019 336.659 490.76 341.484C485.742 343.32 479.591 350.04 476.076 354.416C481.466 358.674 492.283 368.285 492.889 377.134C493.475 385.827 490.096 392.469 482.598 397.45C476.877 401.24 467.875 403.779 460.826 403.682L457.487 403.623V400.283C457.448 380.006 458.112 331.287 458.229 321.715L458.268 319.351L460.475 318.55C482.93 310.443 502.008 307.181 511.38 305.931C530.106 303.469 544.439 299.406 556.506 293.136C570.331 285.947 577.849 277.899 580.875 267.018C583.179 258.696 582.496 252.152 578.356 242.893C575.193 235.802 574.549 234.884 569.882 230.527C562.657 223.827 551.586 220.389 545.025 220.975C542.916 221.151 541.334 221.756 540.69 222.616C539.596 224.042 539.049 225.312 541.471 233.047C545.942 247.347 544.732 259.517 537.78 270.222C534.207 275.711 532.215 277.43 525.205 281.122C514.212 286.924 508.276 287.686 479.825 286.924C472.835 286.728 466.665 286.65 460.982 286.65H459.635C437.14 286.709 421.07 288.193 402.286 291.925C393.303 293.702 389.086 295.245 372.195 302.922C355.168 310.658 351.575 312.651 344.741 318.062C316.466 340.429 298.287 369.125 294.831 396.766C292.644 414.348 294.733 429.057 301.665 444.45C308.539 459.687 317.482 469.611 331.58 477.64C347.572 486.743 364.951 486.528 371.16 477.112C374.324 472.326 374.909 470.49 369.09 456.132C362.51 439.957 362.061 434.566 365.927 417.747C370.047 399.853 380.435 374.458 397.287 356.76C403.262 350.489 410.545 344.472 418.961 338.925L426.459 333.963L426.401 334.041ZM508.334 525.675C501.734 525.675 488.983 508.993 488.847 508.817C479.415 495.787 470.297 472.6 464.419 446.814L459.576 425.58L473.186 440.387C491.307 460.098 511.498 500.3 512.493 518.604C512.571 520.225 512.474 524.112 509.662 525.402C509.252 525.577 508.822 525.675 508.354 525.675H508.334ZM472.034 449.471C477.658 472.443 486.074 493.384 494.353 504.832C497.595 509.305 502.281 514.032 505.483 516.767C503.355 500.378 487.285 468.243 472.034 449.451V449.471Z" fill="black"/>
<path d="M642.949 256.704C628.148 269.948 620.396 299.973 617.564 355.099C615.475 395.575 618.228 427.807 624.887 441.559C628.167 448.338 630.959 450.311 635.294 449.002C642.695 446.775 647.928 434.917 652.946 408.976C656.246 391.922 658.023 387.898 662.885 386.491C668.119 384.968 670.559 386.491 671.399 391.824C673.391 404.483 668.04 449.51 662.319 468.146C658.316 481.195 650.916 494.459 644.062 500.847C639.414 505.164 637.13 506.531 631.018 508.563C626.234 510.145 621.919 510.946 618.853 510.77C612.331 510.38 600.4 504.324 594.503 498.366C591.809 495.65 587.415 489.751 584.76 485.258C568.143 457.246 555.704 370.825 560.195 314.565C561.543 297.765 565.448 276.961 569.119 266.979C577.984 243.01 592.922 227.089 609.519 223.925C624.125 221.131 637.52 227.226 644.452 239.787C648.67 247.444 648.26 251.918 642.949 256.684V256.704Z" fill="#00D66B"/>
<path d="M619.753 514.208C619.382 514.208 619.03 514.208 618.659 514.169C611.278 513.739 598.625 507.352 592.084 500.769C589.155 497.819 584.663 491.783 581.813 486.997C564.863 458.437 552.23 371.293 556.78 314.292C558.166 297.003 562.091 276.16 565.918 265.807C575.271 240.49 590.931 224.022 608.876 220.604C624.986 217.537 639.767 224.257 647.422 238.165C652.421 247.249 651.776 253.363 645.196 259.243C631.195 271.765 623.717 301.399 620.944 355.275C618.893 395.126 621.51 426.83 627.934 440.075C631.156 446.697 632.679 446.228 634.319 445.74C641.993 443.415 646.719 423.275 649.609 408.311C652.811 391.766 654.705 385.3 661.93 383.21C665.581 382.155 668.432 382.311 670.619 383.717C672.806 385.104 674.154 387.585 674.739 391.297C676.79 404.326 671.381 450.174 665.542 469.162C661.344 482.816 653.631 496.549 646.348 503.347C641.329 508.016 638.654 509.598 632.054 511.806C628.676 512.939 623.912 514.208 619.714 514.208H619.753ZM616.414 226.679C614.383 226.679 612.293 226.874 610.165 227.285C594.837 230.195 580.7 245.491 572.303 268.17C568.73 277.86 564.883 298.351 563.575 314.839C559.103 370.766 571.268 455.898 587.67 483.539C590.17 487.758 594.407 493.463 596.907 495.983C602.179 501.296 613.367 507.059 619.05 507.391C621.647 507.567 625.611 506.805 629.945 505.359C635.589 503.484 637.463 502.37 641.739 498.385C648.125 492.427 655.252 479.593 659.06 467.169C664.566 449.217 669.936 404.483 668.042 392.371C667.671 389.968 667.046 389.519 666.987 389.48C666.909 389.441 666.226 389.07 663.824 389.773C661.09 390.574 659.548 392.684 656.267 409.64C650.858 437.613 645.254 449.568 636.253 452.284C628.579 454.608 624.634 448.924 621.803 443.063C614.793 428.627 612.001 396.513 614.129 354.943C617.038 298.351 624.966 268.21 640.646 254.184C644.337 250.882 645.254 248.382 641.447 241.447C636.253 232.032 626.977 226.699 616.375 226.699L616.414 226.679Z" fill="black"/>
<path d="M796.838 369.399C790.648 394.188 777.038 416.321 763.799 423.08C760.831 424.603 760.226 425.697 758.859 432.163C754.114 454.569 741.442 473.108 724.219 482.816C717.678 486.489 698.015 491.04 690.731 490.552C671.712 489.263 657.692 480.863 648.847 465.43C644.805 458.398 638.146 432.945 638.439 414.367C638.888 385.593 645.039 364.202 656.755 347.5C668.842 330.29 703.013 307.689 735.759 328.669C749.643 337.557 759.914 357.268 761.71 381.627C761.964 385.065 762.354 388.035 762.569 388.21C763.858 389.226 772.821 378.248 778.679 368.5C783.795 359.963 786.411 356.643 789.184 355.138C792.406 353.419 793.206 353.341 795.296 354.572C798.732 356.603 799.103 360.178 796.799 369.379L796.838 369.399ZM722.598 367.621C720.47 365.062 714.28 363.304 710.277 364.105C698.639 366.488 692.078 386.491 695.515 409.171C696.921 418.43 697.448 420.052 700.221 423.685C704.556 429.331 709.555 430.327 715.296 426.674L717.795 425.092L713.753 422.025C705.708 415.93 702.33 406.885 705.044 398.681C707.622 390.867 715.1 386.96 725.547 388.015C727.675 388.23 727.871 387.781 727.656 383.424C727.382 378.267 724.824 370.278 722.618 367.601L722.598 367.621Z" fill="#00D66B"/>
<path d="M691.941 493.99C691.433 493.99 690.965 493.99 690.535 493.951C670.364 492.583 655.368 483.559 645.936 467.13C641.465 459.355 634.787 433.179 635.08 414.328C635.529 385.573 641.719 363.089 654.02 345.566C668.333 325.172 704.828 304.817 737.653 325.817C752.805 335.526 763.349 356.818 765.165 381.393V381.666C768.133 378.228 772.293 372.68 775.846 366.761C781.353 357.561 784.223 354.005 787.66 352.169C791.468 350.118 793.616 349.591 797.111 351.661C803.32 355.314 802.11 362.542 800.177 370.239C793.752 395.966 779.459 418.958 765.38 426.127C763.701 426.986 763.447 427.123 762.236 432.886C757.277 456.308 744.057 475.588 725.937 485.805C719.122 489.634 700.708 494.01 691.96 494.01L691.941 493.99ZM707.933 323.668C685.829 323.668 666.771 339.198 659.546 349.454C648.065 365.824 642.265 387.058 641.855 414.406C641.562 432.73 648.143 457.343 651.814 463.711C660.171 478.245 672.981 485.903 690.984 487.133C697.643 487.602 716.544 483.226 722.559 479.827C738.961 470.588 750.989 452.928 755.539 431.421C756.945 424.799 757.823 422.279 762.256 420.013C774.499 413.762 787.66 392.117 793.538 368.539C795.959 358.869 794.592 358.069 793.596 357.482C793.049 357.17 792.874 357.111 792.854 357.092C792.815 357.131 792.268 357.326 790.823 358.108C788.734 359.241 786.235 362.522 781.626 370.219C781.509 370.434 769.012 390.574 763.545 391.59L762.041 391.863L760.518 390.867C759.483 390.066 758.936 389.656 758.351 381.862C756.691 359.377 747.338 340.097 733.943 331.521C725.156 325.895 716.33 323.649 707.933 323.649V323.668ZM708.851 432.222C704.692 432.222 700.806 430.034 697.526 425.756C694.186 421.38 693.562 418.977 692.156 409.679C688.426 385.007 696.081 363.519 709.593 360.764C714.826 359.69 722.285 361.917 725.195 365.433C728.124 368.949 730.74 377.896 731.033 383.249C731.189 386.237 731.326 388.581 729.588 390.222C728.046 391.687 726.054 391.473 725.195 391.394C720.079 390.867 711.057 391.277 708.265 399.736C706.02 406.573 708.89 414.074 715.802 419.309L723.75 425.306L717.13 429.526C714.299 431.323 711.526 432.222 708.851 432.222ZM712.483 367.289C711.956 367.289 711.428 367.328 710.96 367.426C702.388 369.184 695.475 386.159 698.892 408.643C700.24 417.61 700.669 418.645 702.934 421.595C705.727 425.228 708.363 426.225 711.721 424.74C702.563 417.805 698.697 407.159 701.841 397.606C704.789 388.679 713.127 383.874 724.316 384.499C724.316 384.225 724.296 383.932 724.277 383.6C724.023 378.892 721.621 371.704 720.02 369.77C719.063 368.637 715.49 367.269 712.522 367.269L712.483 367.289Z" fill="black"/>
<path d="M1061.32 293.136C1060.56 293.155 1059.92 292.765 1059.9 292.257C1059.84 290.616 1051.56 288.272 1046.5 288.447C1036.97 288.779 1026.1 296.652 1016.37 310.248C1006.04 324.664 992.24 349.571 981.149 373.813C967.363 403.936 953.714 427.807 943.443 439.762C927.529 458.32 904.917 467.423 887.538 462.246C870.531 457.187 861.178 443.864 860.318 423.431C860.104 418.45 859.85 414.348 859.772 414.348C859.674 414.348 858.034 417.395 856.101 421.126C854.187 424.857 849.989 431.675 846.786 436.265C833.489 455.331 819.469 464.805 803.496 465.509C794.319 465.899 788.148 463.36 781.451 456.386C773.21 447.81 769.422 436.168 768.817 417.454C767.45 375.611 791.644 319.527 817.301 304.993C821.949 302.356 824.097 301.809 830.638 301.575C840.401 301.243 845.01 303.294 852.664 311.381C861.783 321.031 862.74 327.36 855.691 331.248C853.543 332.439 850.301 335.233 848.466 337.46C842.432 344.844 833.606 368.109 830.775 384.108C829.193 393.035 829.564 403.994 831.497 406.475C832.923 408.292 833.118 408.292 835.676 406.475C840.05 403.408 843.604 397.177 855.437 371.997C868.695 343.789 876.838 330.134 885.625 321.324C893.299 313.627 900.055 309.877 907.787 308.998C916.613 308.001 921.827 309.701 928.232 315.679C934.148 321.207 937.175 328.024 936.042 333.26C935.593 335.33 925.635 346.016 920.87 356.662C914.973 369.867 912.103 382.233 912.337 393.524C912.493 401.299 912.884 403.428 914.368 404.815C918.917 409.073 923.623 402.783 944.009 365.199C966.367 323.942 977.341 306.38 990.97 289.971C1003.35 275.066 1017.08 265.787 1030.9 262.974C1047.79 259.517 1063.26 267.409 1065.48 280.575C1066.26 285.224 1063.71 293.038 1061.36 293.116L1061.32 293.136Z" fill="#00D66B"/>
<path d="M801.72 468.947C792.582 468.947 785.884 465.919 778.991 458.75C770.107 449.51 766.045 437.203 765.401 417.571C763.995 374.399 788.872 317.183 815.603 302.043C820.778 299.113 823.414 298.43 830.502 298.195C841.281 297.785 846.787 300.266 855.106 309.056C861.627 315.972 864.322 321.422 863.58 326.227C863.072 329.529 860.963 332.224 857.312 334.256C855.535 335.233 852.626 337.772 851.083 339.647C845.401 346.602 836.829 369.36 834.115 384.733C832.728 392.606 833.099 400.712 833.88 403.604C837.512 400.927 841.222 394.227 852.352 370.571C865.767 342.031 874.124 328.044 883.204 318.941C891.425 310.697 898.884 306.595 907.398 305.638C917.161 304.544 923.429 306.575 930.537 313.217C937.351 319.605 940.729 327.556 939.363 334.002C939.05 335.428 938.035 336.834 935.125 340.702C931.825 345.078 926.827 351.72 923.976 358.088C918.293 370.805 915.521 382.721 915.755 393.485C915.833 397.704 916.028 401.709 916.712 402.353C916.946 402.588 917.063 402.627 917.083 402.646C920.441 401.631 933.329 377.838 941.042 363.616C963.517 322.144 974.569 304.446 988.374 287.842C1001.22 272.39 1015.69 262.642 1030.24 259.673C1040.65 257.544 1050.98 259.302 1058.57 264.518C1064.16 268.346 1067.81 273.855 1068.84 280.047C1069.6 284.54 1068 291.241 1065.45 294.386C1064.02 296.124 1062.52 296.535 1061.48 296.554C1060.11 296.613 1058.79 296.124 1057.87 295.265C1057.46 294.874 1057.13 294.425 1056.91 293.937C1055.23 293.077 1050.14 291.788 1046.66 291.866C1038.24 292.159 1028.23 299.602 1019.17 312.24C1008.97 326.481 995.267 351.212 984.254 375.239C970.39 405.498 956.468 429.838 946.041 441.989C929.189 461.641 905.289 471.096 886.582 465.509C868.911 460.254 858.757 446.736 857.097 426.361C854.93 430.112 851.981 434.761 849.58 438.219C835.696 458.125 820.68 468.165 803.653 468.908C803.009 468.947 802.364 468.947 801.739 468.947H801.72ZM832.591 304.954C832.006 304.954 831.381 304.954 830.736 304.993C824.761 305.188 823.121 305.618 818.962 307.962C794.495 321.812 770.888 377.017 772.196 417.356C772.782 435.152 776.277 446.111 783.892 454.042C789.906 460.293 795.198 462.461 803.341 462.129C818.103 461.485 831.4 452.401 843.975 434.351C847.119 429.839 851.2 423.216 853.055 419.602C857.41 411.124 857.507 410.968 859.753 410.968C863.17 410.968 863.209 411.671 863.697 423.294C864.498 442.341 872.836 454.354 888.496 459.004C904.683 463.829 925.733 455.214 940.866 437.574C950.883 425.873 964.435 402.138 978.045 372.426C989.214 348.028 1003.18 322.867 1013.6 308.294C1024.05 293.702 1035.69 285.459 1046.39 285.068C1050.78 284.892 1057.75 286.357 1060.99 288.486C1061.77 286.533 1062.48 283.388 1062.11 281.161C1061.36 276.746 1058.81 272.937 1054.69 270.104C1048.61 265.944 1040.18 264.557 1031.57 266.315C1018.54 268.971 1005.42 277.899 993.568 292.159C980.095 308.373 969.219 325.817 946.978 366.82C928.525 400.849 923.351 408.39 917.805 409.288C915.755 409.62 913.802 408.956 912.025 407.296C909.409 404.854 909.077 401.416 908.921 393.582C908.667 381.803 911.635 368.93 917.747 355.275C920.91 348.204 926.182 341.21 929.658 336.581C930.908 334.92 932.333 333.025 932.724 332.322C933.427 328.337 930.712 322.691 925.87 318.159C920.168 312.826 916.028 311.479 908.14 312.377C901.169 313.159 895.154 316.558 888.008 323.727C879.533 332.205 871.547 345.684 858.503 373.442C846.162 399.697 842.648 405.713 837.61 409.269C834.7 411.32 832.025 412.687 828.803 408.565C825.562 404.424 826.05 391.18 827.417 383.522C830.346 366.976 839.465 343.086 845.83 335.311C847.92 332.752 851.532 329.665 854.032 328.278C856.609 326.852 856.804 325.583 856.882 325.153C857.097 323.766 856.511 320.425 850.185 313.706C843.702 306.829 840.09 304.935 832.611 304.935L832.591 304.954ZM1063.3 292.1C1063.3 292.1 1063.3 292.12 1063.3 292.139C1063.3 292.139 1063.3 292.12 1063.3 292.1Z" fill="black"/>
</g>
<defs>
<clipPath id="clip0_1685_67">
<rect width="1069" height="622" fill="white"/>
</clipPath>
</defs>
</svg>
