<svg width="28" height="28" viewBox="0 0 28 28" fill="none" xmlns="http://www.w3.org/2000/svg">
<path d="M28.001 13.9804C28.0004 13.779 27.9957 13.5787 27.9867 13.3794V2.01586L24.8546 5.15741C22.2911 2.01018 18.3915 0 14.0235 0C9.47785 0 5.43951 2.17626 2.88672 5.54655L8.02063 10.7501C8.52376 9.81681 9.2385 9.0152 10.1003 8.40976C10.9966 7.70821 12.2666 7.1346 14.0233 7.1346C14.2355 7.1346 14.3993 7.15947 14.5197 7.20633C16.6963 7.37865 18.583 8.58349 19.6939 10.3322L16.0599 13.9772C20.6629 13.9591 25.8628 13.9485 28.0006 13.9796" fill="#1C3AA9"/>
<path d="M13.9384 0.000488281C13.7376 0.0011469 13.5379 0.00583476 13.3392 0.014835H2.0098L5.14191 3.15639C2.00414 5.72757 0 9.63901 0 14.0202C0 18.5795 2.16976 22.63 5.52988 25.1905L10.7178 20.0411C9.7873 19.5365 8.9881 18.8196 8.38448 17.9552C7.68507 17.0562 7.11315 15.7824 7.11315 14.0203C7.11315 13.8075 7.13795 13.6432 7.18467 13.5224C7.35647 11.3392 8.55769 9.44685 10.3012 8.33259L13.9352 11.9776C13.9172 7.36075 13.9065 2.14516 13.9376 0.000886931" fill="#4285F4"/>
<path d="M0 14.0195C0.000672628 14.2209 0.00529837 14.4212 0.0142982 14.6205V25.9841L3.14641 22.8425C5.70987 25.9897 9.60955 27.9999 13.9775 27.9999C18.5232 27.9999 22.5615 25.8237 25.1143 22.4534L19.9804 17.2498C19.4772 18.1831 18.7625 18.9847 17.9007 19.5902C17.0044 20.2917 15.7345 20.8653 13.9777 20.8653C13.7655 20.8653 13.6017 20.8405 13.4813 20.7936C11.3047 20.6213 9.41797 19.4164 8.30706 17.6677L11.9411 14.0227C7.33813 14.0408 2.13823 14.0514 0.000399762 14.0203" fill="#ABABAB"/>
</svg>
