<svg width="28" height="28" viewBox="0 0 28 28" fill="none" xmlns="http://www.w3.org/2000/svg">
<path d="M27.7667 14.4601C27.4666 13.3269 26.8801 12.2858 26.0627 11.4428C26.7508 9.5449 26.5522 7.4397 25.5271 5.70302C23.9477 3.05885 20.8261 1.74137 17.8198 2.44618C16.1481 0.4976 13.5437 -0.377647 11.0315 0.152108C8.51939 0.681863 6.49214 2.53831 5.75328 4.99361C3.73988 5.34371 1.98047 6.55984 0.946061 8.32416C-0.610166 10.9729 -0.217646 14.3311 1.9112 16.5469C1.22313 18.4448 1.4217 20.55 2.44687 22.2867C4.02157 24.94 7.14788 26.2621 10.1541 25.5389C11.8212 27.4875 14.4257 28.3765 16.9424 27.8514C19.4592 27.3262 21.4864 25.4744 22.2345 23.0191C24.2479 22.669 26.0073 21.4483 27.0417 19.6886C27.9792 18.1131 28.2424 16.229 27.7714 14.4555L27.7667 14.4601ZM22.2945 21.1074V14.1561C22.2945 13.8566 22.2253 13.5941 21.9759 13.4605L15.5801 9.85814L17.8891 8.54988L23.3012 11.6179C24.525 12.3042 25.4162 13.4559 25.7764 14.8056C26.1366 16.1323 25.9473 17.5511 25.2454 18.735C24.682 19.7024 23.8231 20.4625 22.7979 20.9047C22.6363 20.9738 22.4654 21.0429 22.2992 21.1028L22.2945 21.1074ZM5.68863 6.90533V13.8382C5.68863 14.1192 5.73943 14.4094 6.00265 14.5338L12.3984 18.1361L10.0895 19.4444L4.65422 16.3672C3.43048 15.6808 2.53923 14.5292 2.17904 13.1795C1.81884 11.8528 2.00817 10.434 2.71009 9.25468C3.19035 8.43471 3.88304 7.76676 4.70964 7.31532C5.03751 7.13566 5.33767 7.01589 5.69325 6.90533H5.68863ZM18.3093 6.92837C18.0646 6.79017 17.7644 6.79017 17.5196 6.92837L11.0361 10.6182V7.94181L16.5499 4.87384C19.0897 3.43198 22.3176 4.2842 23.8138 6.78556C24.3403 7.68384 24.5804 8.71571 24.5019 9.74298C24.488 9.95488 24.4603 10.1806 24.4234 10.3925L18.3139 6.92837H18.3093ZM13.987 10.8071L16.9424 12.4793V15.5565L13.987 17.1826L11.0408 15.5104V12.447L13.987 10.8025V10.8071ZM9.84934 6.78096C9.59536 6.90994 9.51224 7.22779 9.51224 7.47655V14.6305L7.18482 13.3545V7.35678C7.18482 7.31532 7.18482 7.27386 7.18482 7.2324C7.20791 5.18708 8.40856 3.33064 10.2742 2.47382C11.9551 1.69991 13.9085 1.85654 15.4324 2.86077C15.6448 2.99897 15.8526 3.1602 16.0465 3.32143L9.84934 6.77635V6.78096ZM3.5644 17.611L9.66463 21.0705C9.90938 21.2087 10.2095 21.2087 10.4543 21.0705L16.947 17.3899V20.0709L11.4287 23.1204C8.88882 24.5623 5.66092 23.7101 4.16473 21.2087C3.58749 20.2229 3.3566 19.0759 3.50437 17.9473C3.51822 17.8321 3.54131 17.7216 3.55978 17.611H3.5644ZM18.1292 21.2133C18.3878 21.0843 18.4617 20.8033 18.4617 20.5131V13.3591L20.7845 14.6352V20.6329C20.7845 20.6744 20.7845 20.7158 20.7845 20.7573C20.7568 22.8026 19.5608 24.6498 17.6997 25.5066C15.9819 26.2944 13.9916 26.1193 12.4538 25.0644C12.2784 24.9446 12.1029 24.8065 11.932 24.6683L18.1338 21.2179L18.1292 21.2133Z" fill="#0F9E7B"/>
</svg>
