<svg width="99" height="91" viewBox="0 0 99 91" fill="none" xmlns="http://www.w3.org/2000/svg">
<path d="M44.9434 29.0195C44.9434 26.6718 46.8459 24.7692 49.1936 24.7692C51.5413 24.7692 53.4439 26.6718 53.4439 29.0195V52.3815C53.4439 54.7292 51.5413 56.6318 49.1936 56.6318C46.8459 56.6318 44.9434 54.7292 44.9434 52.3815V29.0195Z" fill="#01AEF0"/>
<path d="M55.5623 69.3684C55.5623 72.8863 52.712 75.7438 49.1869 75.7438C45.6618 75.7438 42.8115 72.8935 42.8115 69.3684C42.8115 65.8432 45.6618 62.993 49.1869 62.993C52.712 62.993 55.5623 65.8432 55.5623 69.3684Z" fill="#01AEF0"/>
<path d="M78.264 91H19.7871C12.5071 91 6.05993 87.2451 2.5348 80.9559C-0.983149 74.6667 -0.83238 67.2359 2.94403 61.0759L37.1184 6.82051C39.6958 2.54872 44.1399 0 49.022 0C53.904 0 58.3769 2.56308 60.9543 6.84923L95.0856 61.0328C98.9553 67.0277 99.2353 74.3723 95.8107 80.6472C92.3358 87.0297 85.6086 90.9928 78.264 90.9928V91ZM49.022 6.46154C46.3799 6.46154 44.0538 7.81846 42.6322 10.1733C42.6179 10.1949 42.6107 10.2164 42.5963 10.2308L8.43634 64.479C5.92352 68.5856 5.81583 73.5754 8.17788 77.7969C10.5399 82.0185 14.8835 84.5385 19.7943 84.5385H78.264C83.3184 84.5385 87.7625 81.9323 90.1389 77.56C92.4076 73.3959 92.221 68.5138 89.6363 64.5077L55.4476 10.2379C53.9974 7.81846 51.664 6.46154 49.022 6.46154Z" fill="#01AEF0"/>
</svg>
